<svg width="64" height="64" viewBox="0 0 64 64" fill="none" xmlns="http://www.w3.org/2000/svg">
<g clip-path="url(#clip0_90_168)">
<path d="M33.5 0.0361328C49.9857 0.795975 63.204 14.0143 63.9639 30.5H64V33.5H63.9639C63.204 49.9857 49.9857 63.203 33.5 63.9629V64H30.5V63.9629C14.0143 63.203 0.795974 49.9857 0.0361328 33.5H0V30.5H0.0361328C0.795975 14.0143 14.0143 0.795975 30.5 0.0361328V0H33.5V0.0361328ZM3.03906 33.5C3.7959 48.3078 15.6922 60.2041 30.5 60.9609V48.0889C22.7764 47.3767 16.6223 41.2236 15.9102 33.5H3.03906ZM48.0898 33.5C47.3777 41.2236 41.2236 47.3768 33.5 48.0889V60.9609C48.3078 60.2041 60.2041 48.3078 60.9609 33.5H48.0898ZM18.9248 33.5C19.6114 39.5786 24.4214 44.3876 30.5 45.0742V33.5H18.9248ZM33.5 45.0742C39.5786 44.3876 44.3885 39.5786 45.0752 33.5H33.5V45.0742ZM30.5 18.9238C24.4212 19.6104 19.6113 24.4212 18.9248 30.5H30.5V18.9238ZM33.5 15.9092C41.2238 16.6212 47.3778 22.7762 48.0898 30.5H60.9609C60.2041 15.6922 48.3078 3.7949 33.5 3.03809V15.9092ZM33.5 30.5H45.0742C44.3837 24.4237 39.5501 19.6144 33.5 18.9248V30.5ZM30.5 3.03809C15.6922 3.7949 3.7959 15.6922 3.03906 30.5H15.9102C16.6222 22.7762 22.7762 16.6212 30.5 15.9092V3.03809Z" fill="white" style="fill:white;fill-opacity:1;"/>
</g>
<defs>
<clipPath id="clip0_90_168">
<rect width="64" height="64" fill="white" style="fill:white;fill-opacity:1;"/>
</clipPath>
</defs>
</svg>
