<svg width="64" height="64" viewBox="0 0 64 64" fill="none" xmlns="http://www.w3.org/2000/svg">
<path d="M56.2803 0.799805C60.1682 0.79996 63.3203 3.95189 63.3203 7.83984C63.3203 11.7278 60.1682 14.8797 56.2803 14.8799C54.9469 14.8799 53.7005 14.5082 52.6377 13.8643L33.7139 32.6318V49.5713C36.7735 50.3367 39.04 53.1035 39.04 56.4004C39.0398 60.2883 35.8879 63.4395 32 63.4395C28.1121 63.4394 24.9602 60.2883 24.96 56.4004C24.96 53.1036 27.2265 50.3368 30.2861 49.5713V32.2744L11.7217 13.8643C10.659 14.508 9.41323 14.8799 8.08008 14.8799C4.19199 14.8799 1.04004 11.7279 1.04004 7.83984C1.04008 3.9518 4.19202 0.799805 8.08008 0.799805C11.9681 0.799842 15.1201 3.95182 15.1201 7.83984C15.1201 9.1515 14.7594 10.3783 14.1348 11.4297L32.1797 29.3242L50.2246 11.4307C49.5998 10.3792 49.2402 9.15168 49.2402 7.83984C49.2403 3.9518 52.3922 0.799805 56.2803 0.799805Z" fill="white" style="fill:white;fill-opacity:1;"/>
</svg>
