<svg width="64" height="64" viewBox="0 0 64 64" fill="none" xmlns="http://www.w3.org/2000/svg">
<path fill-rule="evenodd" clip-rule="evenodd" d="M31.136 15.7068C30.6575 15.8179 30.2269 16.0024 29.8369 16.2636C29.4294 16.5364 2.48255 43.468 2.21279 43.872C1.14047 45.4781 2.76408 47.5062 4.58956 46.841C4.94661 46.7109 5.4485 46.2178 18.48 33.1934L32 19.6807L45.52 33.1934C58.5515 46.2178 59.0534 46.7109 59.4104 46.841C60.3967 47.2005 61.4749 46.7715 61.9316 45.8381C62.0795 45.5356 62.1101 45.3902 62.1089 44.9924C62.106 44.0132 63.3823 45.3702 48.0776 30.0729C37.4608 19.4611 34.314 16.3509 34.016 16.1745C33.8048 16.0495 33.4448 15.884 33.216 15.8067C32.6857 15.6275 31.6846 15.5795 31.136 15.7068Z" fill="white" style="fill:white;fill-opacity:1;"/>
</svg>
