<svg width="64" height="64" viewBox="0 0 64 64" fill="none" xmlns="http://www.w3.org/2000/svg">
<g clip-path="url(#clip0_285_3803)">
<path d="M32.002 0C49.6742 0.00103196 64 14.3294 64 32.002C63.999 49.6736 49.6736 63.999 32.002 64C14.3294 64 0.00103195 49.6742 0 32.002C1.86347e-05 14.3288 14.3288 1.86358e-05 32.002 0ZM32.002 3.05566C16.0163 3.05568 3.05568 16.0163 3.05566 32.002C3.0567 47.9868 16.0169 60.9443 32.002 60.9443C47.9862 60.9433 60.9433 47.9862 60.9443 32.002C60.9443 16.0169 47.9868 3.0567 32.002 3.05566ZM34.25 48.4893H29.75V28.1104H34.25V48.4893ZM32 14.6797C34.209 14.6797 35.9998 16.4707 36 18.6797C36 20.8888 34.2091 22.6797 32 22.6797C29.7909 22.6797 28 20.8888 28 18.6797C28.0002 16.4707 29.791 14.6797 32 14.6797Z" fill="white" style="fill:white;fill-opacity:1;"/>
</g>
<defs>
<clipPath id="clip0_285_3803">
<rect width="64" height="64" fill="white" style="fill:white;fill-opacity:1;"/>
</clipPath>
</defs>
</svg>
