<svg width="64" height="64" viewBox="0 0 64 64" fill="none" xmlns="http://www.w3.org/2000/svg">
<path d="M7.07922 48.7613C10.9671 48.7614 14.1191 51.9135 14.1193 55.8013C14.1193 59.6894 10.9672 62.8413 7.07922 62.8414C3.19114 62.8414 0.0391846 59.6894 0.0391846 55.8013C0.0393949 51.9134 3.19127 48.7613 7.07922 48.7613ZM56.5597 31.6402C60.4476 31.6403 63.5995 34.7924 63.5997 38.6802C63.5997 42.5683 60.4477 45.7202 56.5597 45.7203C52.6716 45.7203 49.5197 42.5683 49.5197 38.6802C49.5199 34.7923 52.6717 31.6402 56.5597 31.6402ZM20.921 22.2379C24.8089 22.2379 27.9608 25.39 27.9611 29.2779C27.9611 33.1659 24.809 36.3178 20.921 36.3179C17.0329 36.3179 13.881 33.166 13.881 29.2779C13.8812 25.39 17.0331 22.2379 20.921 22.2379ZM40.88 0.440979C44.7679 0.441066 47.9198 3.59317 47.92 7.48102C47.92 11.369 44.768 14.521 40.88 14.5211C36.9919 14.5211 33.84 11.3691 33.84 7.48102C33.8402 3.59311 36.9921 0.440979 40.88 0.440979Z" fill="white" style="fill:white;fill-opacity:1;"/>
</svg>
