<svg width="64" height="64" viewBox="0 0 64 64" fill="none" xmlns="http://www.w3.org/2000/svg">
<path d="M8.55957 21.0389C12.4476 21.039 15.5996 24.1909 15.5996 28.079C15.5996 31.3754 13.3335 34.1413 10.2744 34.9071V55.9374C13.6236 56.3236 16.1198 57.8163 16.1201 59.5995C16.1201 61.6761 12.7348 63.3602 8.55957 63.3602C4.3845 63.3601 1 61.676 1 59.5995C1.00033 57.8161 3.49698 56.3234 6.84668 55.9374V34.9081C3.78652 34.143 1.51953 31.3762 1.51953 28.079C1.51958 24.1909 4.67151 21.0389 8.55957 21.0389ZM32.001 1.67957C35.889 1.67959 39.041 4.83157 39.041 8.7196C39.041 12.0168 36.774 14.7836 33.7139 15.5487V55.9374C37.063 56.3236 39.5592 57.8163 39.5596 59.5995C39.5596 61.6761 36.1743 63.3602 31.999 63.3602C27.8239 63.3601 24.4395 61.676 24.4395 59.5995C24.4398 57.8161 26.9364 56.3234 30.2861 55.9374V15.5477C27.227 14.7819 24.9609 12.0161 24.9609 8.7196C24.961 4.83156 28.1129 1.67957 32.001 1.67957ZM55.4404 13.9608C59.3285 13.9608 62.4804 17.1128 62.4805 21.0009C62.4805 24.298 60.2134 27.0648 57.1533 27.83V55.9374C60.5034 56.3233 63.0006 57.816 63.001 59.5995C63.001 61.6761 59.6157 63.3602 55.4404 63.3602C51.2654 63.3601 47.8809 61.676 47.8809 59.5995C47.8812 57.8165 50.3769 56.3238 53.7256 55.9374V27.829C50.6665 27.0632 48.4004 24.2973 48.4004 21.0009C48.4004 17.1128 51.5524 13.9608 55.4404 13.9608Z" fill="white" style="fill:white;fill-opacity:1;"/>
</svg>
