<svg width="64" height="64" viewBox="0 0 64 64" fill="none" xmlns="http://www.w3.org/2000/svg">
<path d="M26.8008 1.92969C40.6903 1.93016 51.9501 13.1905 51.9502 27.0801C51.9501 33.4113 49.6087 39.1952 45.7471 43.6162L59.75 57.4346L57.291 59.9248L43.2686 46.0869C38.8564 49.9131 33.0994 52.2293 26.8008 52.2295C12.911 52.2295 1.64963 40.9699 1.64941 27.0801C1.64955 13.1902 12.9109 1.92969 26.8008 1.92969ZM26.8008 5.42969C14.8439 5.42969 5.15052 15.1232 5.15039 27.0801C5.1506 39.0369 14.8439 48.7295 26.8008 48.7295C38.7572 48.729 48.45 39.0366 48.4502 27.0801C48.4501 15.1235 38.7573 5.43016 26.8008 5.42969Z" fill="white" style="fill:white;fill-opacity:1;"/>
</svg>
