<svg width="64" height="64" viewBox="0 0 64 64" fill="none" xmlns="http://www.w3.org/2000/svg">
<path d="M58 8C61.3137 8 64 10.6863 64 14V50C64 53.3137 61.3137 56 58 56H6C2.68629 56 0 53.3137 0 50V14C0 10.6863 2.68629 8 6 8H58ZM6 11C4.34315 11 3 12.3431 3 14V50C3 51.6569 4.34315 53 6 53H58C59.6569 53 61 51.6569 61 50V14C61 12.3431 59.6569 11 58 11H6ZM19.5205 36.4805V43.4805H12.5205V36.4805H19.5205ZM35.5205 43.4805H28.5205V36.4805H35.5205V43.4805ZM51.5205 43.4805H44.5205V36.4805H51.5205V43.4805ZM19.5205 27.4805H12.5205V20.4805H19.5205V27.4805ZM35.5205 27.4805H28.5205V20.4805H35.5205V27.4805ZM51.5205 27.4805H44.5205V20.4805H51.5205V27.4805Z" fill="white" style="fill:white;fill-opacity:1;"/>
</svg>
