<svg width="64" height="64" viewBox="0 0 64 64" fill="none" xmlns="http://www.w3.org/2000/svg">
<path d="M40.192 58.3966C40.0334 60.6225 37.5485 61.9011 35.6451 60.7365L35.4566 60.6115L24.6568 52.8976C23.8684 52.3345 23.4 51.425 23.4 50.4562V35.0499C23.4 34.52 23.2593 34.0011 22.9947 33.545L22.8746 33.3536L3.22128 4.6963C1.8563 2.70561 3.28119 0.000197933 5.69491 0H58.2496C60.6744 0 62.0978 2.72803 60.7105 4.71681L40.7398 33.3468C40.3887 33.8501 40.1999 34.4489 40.1998 35.0626V58.1711L40.192 58.3966ZM26.9 50.1974L36.6998 57.1984V35.0626C36.6999 33.7328 37.1079 32.4345 37.8687 31.3438L57.2906 3.50001H6.64511L25.7603 31.3741C26.5025 32.4564 26.9 33.7376 26.9 35.0499V50.1974Z" fill="white" style="fill:white;fill-opacity:1;"/>
</svg>
