<svg width="64" height="64" viewBox="0 0 64 64" fill="none" xmlns="http://www.w3.org/2000/svg">
<path fill-rule="evenodd" clip-rule="evenodd" d="M3.55065 18.3097C2.92012 18.3896 2.35327 18.8248 2.05747 19.456C1.92678 19.7348 1.89222 19.9078 1.89113 20.2884C1.88844 21.1929 0.746234 19.9837 15.9819 35.2057C28.8744 48.0867 29.7562 48.954 30.1819 49.1719C30.8075 49.4923 31.2806 49.6049 32 49.6049C32.7194 49.6049 33.1924 49.4923 33.8181 49.1719C34.2438 48.954 35.1256 48.0867 48.018 35.2057C59.6593 23.5749 61.7907 21.4181 61.9372 21.1204C62.2914 20.4009 62.1191 19.4455 61.5288 18.8552C61.1456 18.472 60.7083 18.2969 60.1346 18.2969C59.1788 18.2969 60.516 17.0406 45.4879 32.0571L31.9999 45.5348L18.5439 32.0855C8.82009 22.3666 5.0094 18.5972 4.80473 18.4951C4.46355 18.325 3.98636 18.2544 3.55065 18.3097Z" fill="white" style="fill:white;fill-opacity:1;"/>
</svg>
