<svg width="64" height="64" viewBox="0 0 64 64" fill="none" xmlns="http://www.w3.org/2000/svg">
<path fill-rule="evenodd" clip-rule="evenodd" d="M3.32021 1.94505C2.61685 2.14838 2.03925 2.7862 1.91387 3.49808C1.83195 3.9631 1.91483 4.50825 2.12021 4.85507C2.19611 4.9832 8.30914 11.1432 15.7048 18.544L29.1514 31.9999L15.6723 45.488C5.20411 55.9631 2.1636 59.0403 2.06095 59.264C1.38319 60.7406 2.65544 62.3813 4.24975 62.0866C4.45455 62.0487 4.72693 61.9557 4.85506 61.8798C4.98319 61.8039 11.1432 55.6908 18.544 48.2951L32 34.8485L45.456 48.2951C52.8569 55.6908 59.0168 61.8039 59.145 61.8798C59.9968 62.3842 61.2182 62.0763 61.7914 61.2128C62.1931 60.6075 62.2304 59.7369 61.8798 59.145C61.8039 59.0169 55.6908 52.8569 48.2951 45.456L34.8485 32L48.2951 18.544C55.6908 11.1432 61.8039 4.9832 61.8798 4.85507C61.9557 4.72694 62.0485 4.45603 62.086 4.25308C62.3831 2.64566 60.7747 1.3926 59.264 2.05468C59.0343 2.15536 56.2469 4.90947 45.488 15.6661L32 29.1513L18.512 15.6661C7.42395 4.58032 4.97026 2.15728 4.72168 2.04822C4.33794 1.87977 3.70671 1.83331 3.32021 1.94505Z" fill="white" style="fill:white;fill-opacity:1;"/>
</svg>
