<?xml version="1.0" encoding="UTF-8"?>
<svg id="Layer_1" xmlns="http://www.w3.org/2000/svg" version="1.1" viewBox="0 0 128 128">
  <!-- Generator: Adobe Illustrator 29.8.2, SVG Export Plug-In . SVG Version: 2.1.1 Build 3)  -->
  <defs>
    <style>
      .st0 {
        fill: #fff;
      }
    </style>
  </defs>
  <rect width="128" height="128"/>
  <path class="st0" d="M-7.52,64s50.3-2.77,53.53-7.38c2.77-4.61-14.31-23.99-14.31-23.99,0,0,20.3,15.23,25.38,12.92,4.61-2.77,6.92-51.68,6.92-51.68,0,0,2.31,48.91,6.92,51.68,5.08,2.31,25.38-12.92,25.38-12.92,0,0-17.07,19.38-14.31,23.99,3.23,4.61,53.53,7.38,53.53,7.38,0,0-50.3,2.77-53.53,7.38-2.77,4.61,14.31,23.99,14.31,23.99,0,0-20.3-15.23-25.38-12.92-4.61,2.77-6.92,51.68-6.92,51.68,0,0-2.31-48.91-6.92-51.68-5.08-2.31-25.38,12.92-25.38,12.92,0,0,17.07-19.38,14.31-23.99-3.23-4.61-53.53-7.38-53.53-7.38Z"/>
</svg>